<svg width="439" height="260" viewBox="0 0 439 260" fill="none" xmlns="http://www.w3.org/2000/svg">
<path d="M351 0H0V225H351V0Z" fill="#E6E6E6"/>
<path d="M341 28H10V212H341V28Z" fill="white"/>
<path d="M351 0H0V15H351V0Z" fill="#8F6CC9"/>
<path d="M11 10C12.6569 10 14 8.88071 14 7.5C14 6.11929 12.6569 5 11 5C9.34315 5 8 6.11929 8 7.5C8 8.88071 9.34315 10 11 10Z" fill="white"/>
<path d="M21.5 10C22.8807 10 24 8.88071 24 7.5C24 6.11929 22.8807 5 21.5 5C20.1193 5 19 6.11929 19 7.5C19 8.88071 20.1193 10 21.5 10Z" fill="white"/>
<path d="M32 10C33.6569 10 35 8.88071 35 7.5C35 6.11929 33.6569 5 32 5C30.3431 5 29 6.11929 29 7.5C29 8.88071 30.3431 10 32 10Z" fill="white"/>
<path d="M125 47H40V193H125V47Z" fill="#E6E6E6"/>
<path d="M211 47H140V87H211V47Z" fill="#8F6CC9"/>
<path d="M211 98H140V141H211V98Z" fill="#E6E6E6"/>
<path d="M211 153H140V193H211V153Z" fill="#E6E6E6"/>
<path d="M311 47H226V111H311V47Z" fill="#E6E6E6"/>
<path d="M311 129H226V193H311V129Z" fill="#E6E6E6"/>
<path d="M304.34 124.04V107.127C304.34 101.116 306.727 95.3521 310.977 91.102C315.227 86.8519 320.992 84.4642 327.002 84.4642C333.013 84.4642 338.777 86.8519 343.027 91.102C347.277 95.3521 349.665 101.116 349.665 107.127V124.04C349.664 124.847 349.343 125.62 348.772 126.191C348.202 126.762 347.428 127.083 346.621 127.084H307.384C306.577 127.083 305.803 126.762 305.232 126.191C304.661 125.62 304.34 124.847 304.34 124.04Z" fill="#2F2E41"/>
<path d="M267.177 171.501C267.769 172.301 268.529 172.96 269.403 173.434C270.278 173.907 271.245 174.184 272.238 174.243C273.231 174.302 274.225 174.143 275.149 173.776C276.074 173.41 276.907 172.845 277.589 172.122L299.637 182.038L297.631 169.637L277.002 162.122C275.711 161.055 274.074 160.499 272.401 160.559C270.727 160.619 269.134 161.291 267.923 162.447C266.712 163.604 265.967 165.164 265.83 166.833C265.692 168.501 266.171 170.163 267.177 171.501H267.177Z" fill="#FFB8B8"/>
<path d="M312.985 247.078C306.059 247.078 298.888 246.046 292.86 242.977C289.661 241.38 286.825 239.14 284.531 236.397C282.237 233.654 280.533 230.467 279.527 227.035C276.387 217.091 280.347 207.322 284.176 197.874C286.549 192.02 288.79 186.491 289.372 181.04L289.575 179.105C290.48 170.414 291.263 162.908 295.593 160.092C297.838 158.633 300.857 158.55 304.821 159.837L342.059 171.934L340.69 242.622L340.464 242.698C340.269 242.763 327.142 247.078 312.985 247.078Z" fill="#2F2E41"/>
<path d="M304.17 136.831C304.17 136.831 322.436 131.419 336.642 133.448C336.642 133.448 328.524 178.097 331.23 192.981C333.936 207.864 284.214 198.731 294.361 184.524L297.744 167.612C297.744 167.612 290.979 160.847 297.067 152.729L304.17 136.831Z" fill="#8F6CC9"/>
<path d="M295.186 244.738L272.675 240.517L280.534 180.033C281.063 178.344 293.238 140.023 298.767 137.949C302.782 136.535 306.888 135.395 311.057 134.535L311.857 134.375L307.344 141.146L289.373 184.208L295.186 244.738Z" fill="#2F2E41"/>
<path d="M283.457 342.873L254.371 338.026L270.693 271.374L294.982 180.224L295.222 181.843C295.241 181.963 297.51 193.871 331.178 188.587L331.474 188.541L331.556 188.829L372.249 332.611L339.107 338.135L308.879 233.232L283.457 342.873Z" fill="#2F2E41"/>
<path d="M323.771 256.056L323.789 255.545C323.809 254.977 325.811 198.467 325.142 175.74C324.471 152.936 331.854 133.187 331.929 132.99L331.989 132.832L332.152 132.785C341.704 130.056 349.991 138.2 350.073 138.283L350.19 138.399L347.47 160.843L359.116 242.457L323.771 256.056Z" fill="#2F2E41"/>
<path d="M322.345 126.69C331.522 126.69 338.961 119.251 338.961 110.074C338.961 100.898 331.522 93.4589 322.345 93.4589C313.169 93.4589 305.73 100.898 305.73 110.074C305.73 119.251 313.169 126.69 322.345 126.69Z" fill="#FFB8B8"/>
<path d="M298.978 108.48C298.983 103.727 300.874 99.1702 304.235 95.8094C307.596 92.4485 312.152 90.558 316.905 90.5526H320.288C325.041 90.558 329.598 92.4485 332.959 95.8094C336.319 99.1702 338.21 103.727 338.215 108.48V108.818H331.067L328.629 101.991L328.141 108.818H324.447L323.217 105.374L322.971 108.818H298.978V108.48Z" fill="#2F2E41"/>
<path d="M320.71 129.986C320.375 129.531 320.174 128.991 320.132 128.428C320.09 127.864 320.208 127.301 320.472 126.801C324.056 119.983 329.075 107.386 322.414 99.6164L321.935 99.0581H341.274V128.094L323.706 131.193C323.528 131.225 323.348 131.241 323.167 131.241C322.687 131.241 322.215 131.127 321.788 130.909C321.36 130.691 320.991 130.374 320.71 129.986Z" fill="#2F2E41"/>
<path d="M228.703 22.3648C217.831 13.1558 204.527 7.31733 190.41 5.55999C176.294 3.80264 161.972 6.20216 149.189 12.4665C136.406 18.7309 125.712 28.5901 118.409 40.8443C111.106 53.0985 107.508 67.2195 108.054 81.4888C108.6 95.7581 113.265 109.561 121.483 121.217C129.7 132.873 141.115 141.88 154.339 147.142C167.563 152.404 182.026 153.694 195.967 150.856C209.908 148.017 222.727 141.172 232.863 131.153L322.872 207.396C324.242 208.558 326.015 209.127 327.802 208.976C329.589 208.826 331.244 207.969 332.402 206.594C333.56 205.22 334.126 203.439 333.976 201.645C333.827 199.851 332.973 198.191 331.604 197.028L331.594 197.02L241.584 120.777C252.041 105.713 256.516 87.2708 254.133 69.0663C251.75 50.8617 242.681 34.2066 228.703 22.3648ZM222.9 113.436C215.888 121.778 206.569 127.846 196.122 130.871C185.674 133.897 174.568 133.745 164.207 130.434C153.846 127.123 144.695 120.802 137.913 112.271C131.13 103.739 127.02 93.3803 126.102 82.504C125.184 71.6276 127.5 60.7223 132.756 51.167C138.012 41.6118 145.973 33.8357 155.631 28.8222C165.29 23.8087 176.213 21.783 187.018 23.0011C197.824 24.2192 208.026 28.6266 216.337 35.6657H216.337C221.855 40.3396 226.401 46.0586 229.717 52.4964C233.033 58.9342 235.054 65.9646 235.663 73.1862C236.273 80.4078 235.459 87.6792 233.269 94.5853C231.079 101.491 227.556 107.897 222.9 113.436Z" fill="#3F3D56"/>
<path opacity="0.3" d="M145.398 120.098C134.826 111.175 127.996 98.6018 126.263 84.8747C124.531 71.1476 128.023 57.2709 136.047 46C134.993 47.0614 133.974 48.1729 132.991 49.3346C128.324 54.8667 124.792 61.2641 122.596 68.1615C120.401 75.0588 119.586 82.3211 120.197 89.5336C120.808 96.7462 122.833 103.768 126.157 110.197C129.481 116.627 134.039 122.339 139.57 127.007C145.101 131.675 151.497 135.208 158.393 137.403C165.289 139.599 172.55 140.414 179.761 139.803C186.972 139.192 193.993 137.167 200.421 133.842C206.85 130.517 212.56 125.959 217.228 120.427C218.209 119.263 219.133 118.072 220 116.853C210.242 126.659 197.153 132.437 183.332 133.038C169.512 133.64 155.971 129.021 145.398 120.098Z" fill="black"/>
<path d="M327.68 201.549C328.646 201.785 329.652 201.807 330.627 201.612C331.603 201.417 332.523 201.011 333.325 200.422C334.126 199.833 334.789 199.076 335.265 198.203C335.742 197.33 336.022 196.363 336.085 195.371L359.379 188.905L349.91 180.65L329.241 188.055C327.567 188.06 325.952 188.679 324.704 189.795C323.455 190.91 322.659 192.445 322.467 194.109C322.275 195.772 322.699 197.448 323.66 198.819C324.621 200.191 326.051 201.162 327.68 201.549Z" fill="#FFB8B8"/>
<path d="M337.362 197.127L335.944 183.66L355.402 172.925L342.716 157.568L344.786 140.317L349.941 138.108L350.101 138.314C352.532 141.44 373.85 168.947 373.85 172.347C373.85 175.84 369.772 186.096 364.192 188.886C358.81 191.577 338.599 196.807 337.742 197.029L337.362 197.127Z" fill="#2F2E41"/>
</svg>
