<svg width="24" height="24" viewBox="0 0 24 24" fill="none" xmlns="http://www.w3.org/2000/svg">
<path d="M22.0265 17.2777L21.6412 20.7457C21.5379 21.6754 20.8005 22.3924 19.8702 22.2947C17.5445 22.0507 12.9588 20.9013 8.02945 15.9719C3.10015 11.0426 1.95006 6.45629 1.70559 4.13019C1.6078 3.19972 2.32484 2.46212 3.25471 2.3588L6.7223 1.97351C7.51495 1.88544 8.28417 2.27671 8.67977 2.96921L10.0989 5.45331C10.5462 6.23635 10.4141 7.22191 9.77646 7.85959L9.13918 8.49687C8.66633 8.96972 8.46626 9.65114 8.75253 10.2555C9.09173 10.9715 9.72082 12.0065 10.8572 13.1428C11.9936 14.2792 13.0285 14.9083 13.7445 15.2475C14.3489 15.5338 15.0303 15.3337 15.5031 14.8608L16.1404 14.2236C16.7781 13.5859 17.7637 13.4538 18.5467 13.9012L21.0308 15.3202C21.7233 15.7158 22.1146 16.4851 22.0265 17.2777Z" stroke="#A0A3BD" stroke-width="2" stroke-linecap="round" stroke-linejoin="round"/>
</svg>
